<mxfile host="Electron" modified="2023-07-20T12:27:42.009Z" agent="Mozilla/5.0 (Windows NT 10.0; Win64; x64) AppleWebKit/537.36 (KHTML, like Gecko) draw.io/21.6.1 Chrome/112.0.5615.204 Electron/24.6.1 Safari/537.36" etag="7i8SsedY_vP2VN4PSxCq" version="21.6.1" type="device">
  <diagram name="Page-1" id="lt_AyD8toXFIPzZnjtGi">
    <mxGraphModel dx="1548" dy="902" grid="1" gridSize="10" guides="1" tooltips="1" connect="1" arrows="1" fold="1" page="1" pageScale="1" pageWidth="850" pageHeight="1100" math="0" shadow="0">
      <root>
        <mxCell id="0" />
        <mxCell id="1" parent="0" />
        <mxCell id="TthITXUgRPOgFHcjtO45-15" value="&lt;font color=&quot;#66b2ff&quot;&gt;&lt;b&gt;CMake Project 2&lt;br&gt;Toolchain B&lt;/b&gt;&lt;/font&gt;" style="rounded=0;whiteSpace=wrap;html=1;fillColor=#dae8fc;strokeColor=#6c8ebf;align=left;" parent="1" vertex="1">
          <mxGeometry x="380" y="180" width="230" height="80" as="geometry" />
        </mxCell>
        <mxCell id="TthITXUgRPOgFHcjtO45-16" value="&lt;font color=&quot;#66b2ff&quot;&gt;&lt;b&gt;CMake Project 3&lt;br&gt;Toolchain C&lt;/b&gt;&lt;/font&gt;" style="rounded=0;whiteSpace=wrap;html=1;fillColor=#dae8fc;strokeColor=#6c8ebf;align=left;" parent="1" vertex="1">
          <mxGeometry x="380" y="270" width="230" height="80" as="geometry" />
        </mxCell>
        <mxCell id="TthITXUgRPOgFHcjtO45-11" value="&lt;b style=&quot;border-color: var(--border-color);&quot;&gt;&lt;font color=&quot;#66b2ff&quot;&gt;CMake SuperProject&lt;br&gt;&lt;/font&gt;&lt;br&gt;&lt;br&gt;&lt;br&gt;&lt;br&gt;&lt;br&gt;&lt;br&gt;&lt;br&gt;&lt;br&gt;&lt;br&gt;&lt;br&gt;&lt;br&gt;&lt;br&gt;&lt;br&gt;&lt;br&gt;&lt;br&gt;&lt;br&gt;&lt;br&gt;&lt;br&gt;&lt;br style=&quot;border-color: var(--border-color);&quot;&gt;&lt;/b&gt;" style="rounded=0;whiteSpace=wrap;html=1;fillColor=#dae8fc;strokeColor=#6c8ebf;" parent="1" vertex="1">
          <mxGeometry x="40" y="40" width="160" height="330" as="geometry" />
        </mxCell>
        <mxCell id="TthITXUgRPOgFHcjtO45-1" value="&lt;b&gt;CMakeLists.txt&lt;br&gt;&lt;/b&gt;" style="rounded=0;whiteSpace=wrap;html=1;" parent="1" vertex="1">
          <mxGeometry x="60" y="100" width="120" height="240" as="geometry" />
        </mxCell>
        <mxCell id="TthITXUgRPOgFHcjtO45-2" value="&lt;font color=&quot;#66b2ff&quot;&gt;&lt;b&gt;CMake Project 1&lt;br&gt;Toolchain A&lt;/b&gt;&lt;/font&gt;" style="rounded=0;whiteSpace=wrap;html=1;fillColor=#dae8fc;strokeColor=#6c8ebf;align=left;" parent="1" vertex="1">
          <mxGeometry x="380" y="90" width="230" height="80" as="geometry" />
        </mxCell>
        <mxCell id="TthITXUgRPOgFHcjtO45-5" value="" style="endArrow=classic;html=1;rounded=0;exitX=1;exitY=0.5;exitDx=0;exitDy=0;entryX=0;entryY=0.5;entryDx=0;entryDy=0;" parent="1" edge="1">
          <mxGeometry width="50" height="50" relative="1" as="geometry">
            <mxPoint x="180" y="129.5" as="sourcePoint" />
            <mxPoint x="380" y="129.5" as="targetPoint" />
          </mxGeometry>
        </mxCell>
        <mxCell id="TthITXUgRPOgFHcjtO45-6" value="ExternalProject_Add" style="edgeLabel;html=1;align=center;verticalAlign=middle;resizable=0;points=[];" parent="TthITXUgRPOgFHcjtO45-5" vertex="1" connectable="0">
          <mxGeometry x="-0.322" y="1" relative="1" as="geometry">
            <mxPoint x="22" y="-8" as="offset" />
          </mxGeometry>
        </mxCell>
        <mxCell id="TthITXUgRPOgFHcjtO45-7" value="" style="endArrow=classic;html=1;rounded=0;exitX=1;exitY=0.5;exitDx=0;exitDy=0;entryX=0;entryY=0.5;entryDx=0;entryDy=0;" parent="1" edge="1">
          <mxGeometry width="50" height="50" relative="1" as="geometry">
            <mxPoint x="180" y="219" as="sourcePoint" />
            <mxPoint x="380" y="219" as="targetPoint" />
          </mxGeometry>
        </mxCell>
        <mxCell id="TthITXUgRPOgFHcjtO45-8" value="ExternalProject_Add" style="edgeLabel;html=1;align=center;verticalAlign=middle;resizable=0;points=[];" parent="TthITXUgRPOgFHcjtO45-7" vertex="1" connectable="0">
          <mxGeometry x="-0.322" y="1" relative="1" as="geometry">
            <mxPoint x="22" y="-8" as="offset" />
          </mxGeometry>
        </mxCell>
        <mxCell id="TthITXUgRPOgFHcjtO45-9" value="" style="endArrow=classic;html=1;rounded=0;exitX=1;exitY=0.5;exitDx=0;exitDy=0;entryX=0;entryY=0.5;entryDx=0;entryDy=0;" parent="1" edge="1">
          <mxGeometry width="50" height="50" relative="1" as="geometry">
            <mxPoint x="180" y="309.5" as="sourcePoint" />
            <mxPoint x="380" y="309.5" as="targetPoint" />
          </mxGeometry>
        </mxCell>
        <mxCell id="TthITXUgRPOgFHcjtO45-10" value="ExternalProject_Add" style="edgeLabel;html=1;align=center;verticalAlign=middle;resizable=0;points=[];" parent="TthITXUgRPOgFHcjtO45-9" vertex="1" connectable="0">
          <mxGeometry x="-0.322" y="1" relative="1" as="geometry">
            <mxPoint x="22" y="-8" as="offset" />
          </mxGeometry>
        </mxCell>
        <mxCell id="TthITXUgRPOgFHcjtO45-12" value="Context 1&lt;br&gt;CMake Target" style="rounded=0;whiteSpace=wrap;html=1;" parent="1" vertex="1">
          <mxGeometry x="480" y="100" width="120" height="60" as="geometry" />
        </mxCell>
        <mxCell id="TthITXUgRPOgFHcjtO45-13" value="Context 2&lt;br style=&quot;border-color: var(--border-color);&quot;&gt;CMake Target" style="rounded=0;whiteSpace=wrap;html=1;" parent="1" vertex="1">
          <mxGeometry x="480" y="190" width="120" height="60" as="geometry" />
        </mxCell>
        <mxCell id="TthITXUgRPOgFHcjtO45-14" value="Context 3&lt;br style=&quot;border-color: var(--border-color);&quot;&gt;CMake Target" style="rounded=0;whiteSpace=wrap;html=1;" parent="1" vertex="1">
          <mxGeometry x="480" y="280" width="120" height="60" as="geometry" />
        </mxCell>
      </root>
    </mxGraphModel>
  </diagram>
</mxfile>
